<mxfile host="app.diagrams.net" modified="2021-01-08T09:16:39.190Z" agent="5.0 (Macintosh; Intel Mac OS X 10_15_7) AppleWebKit/537.36 (KHTML, like Gecko) Chrome/87.0.4280.88 Safari/537.36" etag="MnWOtrYVueQSTv-i8_3V" version="14.1.8" type="github">
  <diagram name="Page-1" id="e7e014a7-5840-1c2e-5031-d8a46d1fe8dd">
    <mxGraphModel dx="1351" dy="786" grid="1" gridSize="10" guides="1" tooltips="1" connect="1" arrows="1" fold="1" page="1" pageScale="1" pageWidth="2336" pageHeight="1654" background="#ffffff" math="0" shadow="0">
      <root>
        <mxCell id="0" />
        <mxCell id="1" parent="0" />
        <mxCell id="_pYZsoWhLjhE2k3BnA1Z-41" value="main" style="swimlane;fontStyle=1;align=center;verticalAlign=top;childLayout=stackLayout;horizontal=1;startSize=26;horizontalStack=0;resizeParent=1;resizeParentMax=0;resizeLast=0;collapsible=1;marginBottom=0;" parent="1" vertex="1">
          <mxGeometry x="470" y="10" width="300" height="140" as="geometry" />
        </mxCell>
        <mxCell id="_pYZsoWhLjhE2k3BnA1Z-42" value="+ cutState: object" style="text;strokeColor=none;fillColor=none;align=left;verticalAlign=top;spacingLeft=4;spacingRight=4;overflow=hidden;rotatable=0;points=[[0,0.5],[1,0.5]];portConstraint=eastwest;" parent="_pYZsoWhLjhE2k3BnA1Z-41" vertex="1">
          <mxGeometry y="26" width="300" height="26" as="geometry" />
        </mxCell>
        <mxCell id="_pYZsoWhLjhE2k3BnA1Z-43" value="" style="line;strokeWidth=1;fillColor=none;align=left;verticalAlign=middle;spacingTop=-1;spacingLeft=3;spacingRight=3;rotatable=0;labelPosition=right;points=[];portConstraint=eastwest;" parent="_pYZsoWhLjhE2k3BnA1Z-41" vertex="1">
          <mxGeometry y="52" width="300" height="8" as="geometry" />
        </mxCell>
        <mxCell id="_pYZsoWhLjhE2k3BnA1Z-44" value="+ historyRegister(dispatchers: ReduxDispatch[]): void&#xa;+Â saveInHistory(action: ReduxAction): void&#xa;+ activeRegister(dispatchers: ReduxDispatch[]): void&#xa;+ cancelAllActive(): void&#xa;+ cut(): void" style="text;strokeColor=none;fillColor=none;align=left;verticalAlign=top;spacingLeft=4;spacingRight=4;overflow=hidden;rotatable=0;points=[[0,0.5],[1,0.5]];portConstraint=eastwest;" parent="_pYZsoWhLjhE2k3BnA1Z-41" vertex="1">
          <mxGeometry y="60" width="300" height="80" as="geometry" />
        </mxCell>
        <mxCell id="_pYZsoWhLjhE2k3BnA1Z-45" value="Use" style="endArrow=open;endSize=12;dashed=1;html=1;exitX=-0.006;exitY=0.038;exitDx=0;exitDy=0;exitPerimeter=0;entryX=0.427;entryY=0;entryDx=0;entryDy=0;entryPerimeter=0;" parent="1" source="_pYZsoWhLjhE2k3BnA1Z-42" target="_pYZsoWhLjhE2k3BnA1Z-46" edge="1">
          <mxGeometry x="-0.2702" width="160" relative="1" as="geometry">
            <mxPoint x="560" y="426" as="sourcePoint" />
            <mxPoint x="220" y="388" as="targetPoint" />
            <Array as="points">
              <mxPoint x="194" y="37" />
            </Array>
            <mxPoint as="offset" />
          </mxGeometry>
        </mxCell>
        <mxCell id="_pYZsoWhLjhE2k3BnA1Z-46" value="StickerWithLockController" style="swimlane;fontStyle=1;align=center;verticalAlign=top;childLayout=stackLayout;horizontal=1;startSize=26;horizontalStack=0;resizeParent=1;resizeParentMax=0;resizeLast=0;collapsible=1;marginBottom=0;" parent="1" vertex="1">
          <mxGeometry x="100" y="390" width="220" height="140" as="geometry" />
        </mxCell>
        <mxCell id="_pYZsoWhLjhE2k3BnA1Z-47" value="+ name: string&#xa;+ currentName: string&#xa;- locked: boolean" style="text;strokeColor=none;fillColor=none;align=left;verticalAlign=top;spacingLeft=4;spacingRight=4;overflow=hidden;rotatable=0;points=[[0,0.5],[1,0.5]];portConstraint=eastwest;" parent="_pYZsoWhLjhE2k3BnA1Z-46" vertex="1">
          <mxGeometry y="26" width="220" height="54" as="geometry" />
        </mxCell>
        <mxCell id="_pYZsoWhLjhE2k3BnA1Z-48" value="" style="line;strokeWidth=1;fillColor=none;align=left;verticalAlign=middle;spacingTop=-1;spacingLeft=3;spacingRight=3;rotatable=0;labelPosition=right;points=[];portConstraint=eastwest;" parent="_pYZsoWhLjhE2k3BnA1Z-46" vertex="1">
          <mxGeometry y="80" width="220" height="8" as="geometry" />
        </mxCell>
        <mxCell id="_pYZsoWhLjhE2k3BnA1Z-49" value="+ computeLocked(): boolean&#xa;+ render(locked: boolean): ReactNode" style="text;strokeColor=none;fillColor=none;align=left;verticalAlign=top;spacingLeft=4;spacingRight=4;overflow=hidden;rotatable=0;points=[[0,0.5],[1,0.5]];portConstraint=eastwest;" parent="_pYZsoWhLjhE2k3BnA1Z-46" vertex="1">
          <mxGeometry y="88" width="220" height="52" as="geometry" />
        </mxCell>
        <mxCell id="_pYZsoWhLjhE2k3BnA1Z-51" value="LockController" style="swimlane;fontStyle=1;align=center;verticalAlign=top;childLayout=stackLayout;horizontal=1;startSize=26;horizontalStack=0;resizeParent=1;resizeParentMax=0;resizeLast=0;collapsible=1;marginBottom=0;" parent="1" vertex="1">
          <mxGeometry x="540" y="160" width="180" height="104" as="geometry" />
        </mxCell>
        <mxCell id="_pYZsoWhLjhE2k3BnA1Z-52" value="+ name: string&#xa;+ currentName: string" style="text;strokeColor=none;fillColor=none;align=left;verticalAlign=top;spacingLeft=4;spacingRight=4;overflow=hidden;rotatable=0;points=[[0,0.5],[1,0.5]];portConstraint=eastwest;" parent="_pYZsoWhLjhE2k3BnA1Z-51" vertex="1">
          <mxGeometry y="26" width="180" height="44" as="geometry" />
        </mxCell>
        <mxCell id="_pYZsoWhLjhE2k3BnA1Z-53" value="" style="line;strokeWidth=1;fillColor=none;align=left;verticalAlign=middle;spacingTop=-1;spacingLeft=3;spacingRight=3;rotatable=0;labelPosition=right;points=[];portConstraint=eastwest;" parent="_pYZsoWhLjhE2k3BnA1Z-51" vertex="1">
          <mxGeometry y="70" width="180" height="8" as="geometry" />
        </mxCell>
        <mxCell id="_pYZsoWhLjhE2k3BnA1Z-54" value="+ computeLocked(): boolean" style="text;strokeColor=none;fillColor=none;align=left;verticalAlign=top;spacingLeft=4;spacingRight=4;overflow=hidden;rotatable=0;points=[[0,0.5],[1,0.5]];portConstraint=eastwest;" parent="_pYZsoWhLjhE2k3BnA1Z-51" vertex="1">
          <mxGeometry y="78" width="180" height="26" as="geometry" />
        </mxCell>
        <mxCell id="_pYZsoWhLjhE2k3BnA1Z-56" value="TextWithLockController" style="swimlane;fontStyle=1;align=center;verticalAlign=top;childLayout=stackLayout;horizontal=1;startSize=26;horizontalStack=0;resizeParent=1;resizeParentMax=0;resizeLast=0;collapsible=1;marginBottom=0;" parent="1" vertex="1">
          <mxGeometry x="360" y="390" width="230" height="140" as="geometry" />
        </mxCell>
        <mxCell id="_pYZsoWhLjhE2k3BnA1Z-57" value="+ name: string&#xa;+ currentName: string&#xa;- locked: boolean" style="text;strokeColor=none;fillColor=none;align=left;verticalAlign=top;spacingLeft=4;spacingRight=4;overflow=hidden;rotatable=0;points=[[0,0.5],[1,0.5]];portConstraint=eastwest;" parent="_pYZsoWhLjhE2k3BnA1Z-56" vertex="1">
          <mxGeometry y="26" width="230" height="54" as="geometry" />
        </mxCell>
        <mxCell id="_pYZsoWhLjhE2k3BnA1Z-58" value="" style="line;strokeWidth=1;fillColor=none;align=left;verticalAlign=middle;spacingTop=-1;spacingLeft=3;spacingRight=3;rotatable=0;labelPosition=right;points=[];portConstraint=eastwest;" parent="_pYZsoWhLjhE2k3BnA1Z-56" vertex="1">
          <mxGeometry y="80" width="230" height="8" as="geometry" />
        </mxCell>
        <mxCell id="_pYZsoWhLjhE2k3BnA1Z-59" value="+ computeLocked(): boolean&#xa;+ render(locked: boolean): ReactNode" style="text;strokeColor=none;fillColor=none;align=left;verticalAlign=top;spacingLeft=4;spacingRight=4;overflow=hidden;rotatable=0;points=[[0,0.5],[1,0.5]];portConstraint=eastwest;" parent="_pYZsoWhLjhE2k3BnA1Z-56" vertex="1">
          <mxGeometry y="88" width="230" height="52" as="geometry" />
        </mxCell>
        <mxCell id="_pYZsoWhLjhE2k3BnA1Z-60" value="Use" style="endArrow=open;endSize=12;dashed=1;html=1;entryX=0.348;entryY=0;entryDx=0;entryDy=0;entryPerimeter=0;exitX=-0.025;exitY=0.038;exitDx=0;exitDy=0;exitPerimeter=0;" parent="1" source="_pYZsoWhLjhE2k3BnA1Z-44" target="_pYZsoWhLjhE2k3BnA1Z-56" edge="1">
          <mxGeometry x="0.2488" width="160" relative="1" as="geometry">
            <mxPoint x="480" y="280" as="sourcePoint" />
            <mxPoint x="640" y="280" as="targetPoint" />
            <Array as="points">
              <mxPoint x="440" y="73" />
            </Array>
            <mxPoint as="offset" />
          </mxGeometry>
        </mxCell>
        <mxCell id="_pYZsoWhLjhE2k3BnA1Z-62" value="StitchingWithLockController" style="swimlane;fontStyle=1;align=center;verticalAlign=top;childLayout=stackLayout;horizontal=1;startSize=26;horizontalStack=0;resizeParent=1;resizeParentMax=0;resizeLast=0;collapsible=1;marginBottom=0;" parent="1" vertex="1">
          <mxGeometry x="640" y="390" width="230" height="140" as="geometry" />
        </mxCell>
        <mxCell id="_pYZsoWhLjhE2k3BnA1Z-63" value="+ name: string&#xa;+ currentName: string&#xa;- locked: boolean" style="text;strokeColor=none;fillColor=none;align=left;verticalAlign=top;spacingLeft=4;spacingRight=4;overflow=hidden;rotatable=0;points=[[0,0.5],[1,0.5]];portConstraint=eastwest;" parent="_pYZsoWhLjhE2k3BnA1Z-62" vertex="1">
          <mxGeometry y="26" width="230" height="54" as="geometry" />
        </mxCell>
        <mxCell id="_pYZsoWhLjhE2k3BnA1Z-64" value="" style="line;strokeWidth=1;fillColor=none;align=left;verticalAlign=middle;spacingTop=-1;spacingLeft=3;spacingRight=3;rotatable=0;labelPosition=right;points=[];portConstraint=eastwest;" parent="_pYZsoWhLjhE2k3BnA1Z-62" vertex="1">
          <mxGeometry y="80" width="230" height="8" as="geometry" />
        </mxCell>
        <mxCell id="_pYZsoWhLjhE2k3BnA1Z-65" value="+ computeLocked(): boolean&#xa;+ render(locked: boolean): ReactNode" style="text;strokeColor=none;fillColor=none;align=left;verticalAlign=top;spacingLeft=4;spacingRight=4;overflow=hidden;rotatable=0;points=[[0,0.5],[1,0.5]];portConstraint=eastwest;" parent="_pYZsoWhLjhE2k3BnA1Z-62" vertex="1">
          <mxGeometry y="88" width="230" height="52" as="geometry" />
        </mxCell>
        <mxCell id="_pYZsoWhLjhE2k3BnA1Z-66" value="BackgroundWithLockController" style="swimlane;fontStyle=1;align=center;verticalAlign=top;childLayout=stackLayout;horizontal=1;startSize=26;horizontalStack=0;resizeParent=1;resizeParentMax=0;resizeLast=0;collapsible=1;marginBottom=0;" parent="1" vertex="1">
          <mxGeometry x="970" y="390" width="230" height="140" as="geometry" />
        </mxCell>
        <mxCell id="_pYZsoWhLjhE2k3BnA1Z-67" value="+ name: string&#xa;+ currentName: string&#xa;- locked: boolean" style="text;strokeColor=none;fillColor=none;align=left;verticalAlign=top;spacingLeft=4;spacingRight=4;overflow=hidden;rotatable=0;points=[[0,0.5],[1,0.5]];portConstraint=eastwest;" parent="_pYZsoWhLjhE2k3BnA1Z-66" vertex="1">
          <mxGeometry y="26" width="230" height="54" as="geometry" />
        </mxCell>
        <mxCell id="_pYZsoWhLjhE2k3BnA1Z-68" value="" style="line;strokeWidth=1;fillColor=none;align=left;verticalAlign=middle;spacingTop=-1;spacingLeft=3;spacingRight=3;rotatable=0;labelPosition=right;points=[];portConstraint=eastwest;" parent="_pYZsoWhLjhE2k3BnA1Z-66" vertex="1">
          <mxGeometry y="80" width="230" height="8" as="geometry" />
        </mxCell>
        <mxCell id="_pYZsoWhLjhE2k3BnA1Z-69" value="+ computeLocked(): boolean&#xa;+ render(locked: boolean): ReactNode" style="text;strokeColor=none;fillColor=none;align=left;verticalAlign=top;spacingLeft=4;spacingRight=4;overflow=hidden;rotatable=0;points=[[0,0.5],[1,0.5]];portConstraint=eastwest;" parent="_pYZsoWhLjhE2k3BnA1Z-66" vertex="1">
          <mxGeometry y="88" width="230" height="52" as="geometry" />
        </mxCell>
        <mxCell id="_pYZsoWhLjhE2k3BnA1Z-71" value="Use" style="endArrow=open;endSize=12;dashed=1;html=1;exitX=0.996;exitY=0.105;exitDx=0;exitDy=0;exitPerimeter=0;" parent="1" source="_pYZsoWhLjhE2k3BnA1Z-44" edge="1">
          <mxGeometry width="160" relative="1" as="geometry">
            <mxPoint x="690" y="330" as="sourcePoint" />
            <mxPoint x="800" y="388" as="targetPoint" />
            <Array as="points">
              <mxPoint x="800" y="78" />
            </Array>
          </mxGeometry>
        </mxCell>
        <mxCell id="_pYZsoWhLjhE2k3BnA1Z-73" value="Use" style="endArrow=open;endSize=12;dashed=1;html=1;entryX=0.649;entryY=-0.022;entryDx=0;entryDy=0;entryPerimeter=0;exitX=1.005;exitY=0.086;exitDx=0;exitDy=0;exitPerimeter=0;" parent="1" source="_pYZsoWhLjhE2k3BnA1Z-42" target="_pYZsoWhLjhE2k3BnA1Z-66" edge="1">
          <mxGeometry width="160" relative="1" as="geometry">
            <mxPoint x="770" y="280" as="sourcePoint" />
            <mxPoint x="930" y="280" as="targetPoint" />
            <Array as="points">
              <mxPoint x="1119" y="38" />
            </Array>
          </mxGeometry>
        </mxCell>
        <mxCell id="_pYZsoWhLjhE2k3BnA1Z-74" value="Sticker" style="swimlane;fontStyle=1;align=center;verticalAlign=top;childLayout=stackLayout;horizontal=1;startSize=26;horizontalStack=0;resizeParent=1;resizeParentMax=0;resizeLast=0;collapsible=1;marginBottom=0;" parent="1" vertex="1">
          <mxGeometry x="80" y="630" width="260" height="220" as="geometry" />
        </mxCell>
        <mxCell id="_pYZsoWhLjhE2k3BnA1Z-75" value="+ locked: boolean&#xa;+Â MAXOPERATORCOUNT: number&#xa;- operatorStateList: array&#xa;- eventCollection: object" style="text;strokeColor=none;fillColor=none;align=left;verticalAlign=top;spacingLeft=4;spacingRight=4;overflow=hidden;rotatable=0;points=[[0,0.5],[1,0.5]];portConstraint=eastwest;" parent="_pYZsoWhLjhE2k3BnA1Z-74" vertex="1">
          <mxGeometry y="26" width="260" height="64" as="geometry" />
        </mxCell>
        <mxCell id="_pYZsoWhLjhE2k3BnA1Z-76" value="" style="line;strokeWidth=1;fillColor=none;align=left;verticalAlign=middle;spacingTop=-1;spacingLeft=3;spacingRight=3;rotatable=0;labelPosition=right;points=[];portConstraint=eastwest;" parent="_pYZsoWhLjhE2k3BnA1Z-74" vertex="1">
          <mxGeometry y="90" width="260" height="8" as="geometry" />
        </mxCell>
        <mxCell id="_pYZsoWhLjhE2k3BnA1Z-77" value="+ register(dispatchers: ReduxDispatch[]): void&#xa;+Â saveInHistory(action: ReduxAction): voidÂ &#xa;+ back(): void&#xa;+ eventHandlers?(): void&#xa;+ fetch(): Promise&#xa;+ select(): void&#xa;- dispatchSetOperators(ReduxAction): void&#xa;+ render(): ReactNode" style="text;strokeColor=none;fillColor=none;align=left;verticalAlign=top;spacingLeft=4;spacingRight=4;overflow=hidden;rotatable=0;points=[[0,0.5],[1,0.5]];portConstraint=eastwest;" parent="_pYZsoWhLjhE2k3BnA1Z-74" vertex="1">
          <mxGeometry y="98" width="260" height="122" as="geometry" />
        </mxCell>
        <mxCell id="_pYZsoWhLjhE2k3BnA1Z-78" value="Text" style="swimlane;fontStyle=1;align=center;verticalAlign=top;childLayout=stackLayout;horizontal=1;startSize=26;horizontalStack=0;resizeParent=1;resizeParentMax=0;resizeLast=0;collapsible=1;marginBottom=0;" parent="1" vertex="1">
          <mxGeometry x="350" y="630" width="260" height="220" as="geometry" />
        </mxCell>
        <mxCell id="_pYZsoWhLjhE2k3BnA1Z-79" value="+ locked: boolean&#xa;+Â MAXOPERATORCOUNT: number&#xa;- operatorStateList: array&#xa;- eventCollection: object" style="text;strokeColor=none;fillColor=none;align=left;verticalAlign=top;spacingLeft=4;spacingRight=4;overflow=hidden;rotatable=0;points=[[0,0.5],[1,0.5]];portConstraint=eastwest;" parent="_pYZsoWhLjhE2k3BnA1Z-78" vertex="1">
          <mxGeometry y="26" width="260" height="64" as="geometry" />
        </mxCell>
        <mxCell id="_pYZsoWhLjhE2k3BnA1Z-80" value="" style="line;strokeWidth=1;fillColor=none;align=left;verticalAlign=middle;spacingTop=-1;spacingLeft=3;spacingRight=3;rotatable=0;labelPosition=right;points=[];portConstraint=eastwest;" parent="_pYZsoWhLjhE2k3BnA1Z-78" vertex="1">
          <mxGeometry y="90" width="260" height="8" as="geometry" />
        </mxCell>
        <mxCell id="_pYZsoWhLjhE2k3BnA1Z-81" value="+ register(dispatchers: ReduxDispatch[]): void&#xa;+Â saveInHistory(action: ReduxAction): void&#xa;+ back(): void&#xa;+ eventHandlers?(): void&#xa;+ fetch(): Promise&#xa;+ select(): void&#xa;- dispatchSetOperators(ReduxAction): void&#xa;+ render(): ReactNode" style="text;strokeColor=none;fillColor=none;align=left;verticalAlign=top;spacingLeft=4;spacingRight=4;overflow=hidden;rotatable=0;points=[[0,0.5],[1,0.5]];portConstraint=eastwest;" parent="_pYZsoWhLjhE2k3BnA1Z-78" vertex="1">
          <mxGeometry y="98" width="260" height="122" as="geometry" />
        </mxCell>
        <mxCell id="_pYZsoWhLjhE2k3BnA1Z-82" value="Stitching" style="swimlane;fontStyle=1;align=center;verticalAlign=top;childLayout=stackLayout;horizontal=1;startSize=26;horizontalStack=0;resizeParent=1;resizeParentMax=0;resizeLast=0;collapsible=1;marginBottom=0;" parent="1" vertex="1">
          <mxGeometry x="620" y="630" width="300" height="150" as="geometry" />
        </mxCell>
        <mxCell id="_pYZsoWhLjhE2k3BnA1Z-83" value="+ locked: boolean&#xa;+ stitchingState: objectÂ Â " style="text;strokeColor=none;fillColor=none;align=left;verticalAlign=top;spacingLeft=4;spacingRight=4;overflow=hidden;rotatable=0;points=[[0,0.5],[1,0.5]];portConstraint=eastwest;" parent="_pYZsoWhLjhE2k3BnA1Z-82" vertex="1">
          <mxGeometry y="26" width="300" height="44" as="geometry" />
        </mxCell>
        <mxCell id="_pYZsoWhLjhE2k3BnA1Z-84" value="" style="line;strokeWidth=1;fillColor=none;align=left;verticalAlign=middle;spacingTop=-1;spacingLeft=3;spacingRight=3;rotatable=0;labelPosition=right;points=[];portConstraint=eastwest;" parent="_pYZsoWhLjhE2k3BnA1Z-82" vertex="1">
          <mxGeometry y="70" width="300" height="8" as="geometry" />
        </mxCell>
        <mxCell id="_pYZsoWhLjhE2k3BnA1Z-85" value="+Â scaleByDoubleFingers(type): ScaleByDoubleFingers&#xa;+ fetch(): Promise&#xa;+ select(): void&#xa;Â + render(): ReactNode" style="text;strokeColor=none;fillColor=none;align=left;verticalAlign=top;spacingLeft=4;spacingRight=4;overflow=hidden;rotatable=0;points=[[0,0.5],[1,0.5]];portConstraint=eastwest;" parent="_pYZsoWhLjhE2k3BnA1Z-82" vertex="1">
          <mxGeometry y="78" width="300" height="72" as="geometry" />
        </mxCell>
        <mxCell id="_pYZsoWhLjhE2k3BnA1Z-86" value="Background" style="swimlane;fontStyle=1;align=center;verticalAlign=top;childLayout=stackLayout;horizontal=1;startSize=26;horizontalStack=0;resizeParent=1;resizeParentMax=0;resizeLast=0;collapsible=1;marginBottom=0;" parent="1" vertex="1">
          <mxGeometry x="940" y="630" width="300" height="150" as="geometry" />
        </mxCell>
        <mxCell id="_pYZsoWhLjhE2k3BnA1Z-87" value="+ locked: boolean&#xa;+Â MAXOPERATORCOUNT: number" style="text;strokeColor=none;fillColor=none;align=left;verticalAlign=top;spacingLeft=4;spacingRight=4;overflow=hidden;rotatable=0;points=[[0,0.5],[1,0.5]];portConstraint=eastwest;" parent="_pYZsoWhLjhE2k3BnA1Z-86" vertex="1">
          <mxGeometry y="26" width="300" height="44" as="geometry" />
        </mxCell>
        <mxCell id="_pYZsoWhLjhE2k3BnA1Z-88" value="" style="line;strokeWidth=1;fillColor=none;align=left;verticalAlign=middle;spacingTop=-1;spacingLeft=3;spacingRight=3;rotatable=0;labelPosition=right;points=[];portConstraint=eastwest;" parent="_pYZsoWhLjhE2k3BnA1Z-86" vertex="1">
          <mxGeometry y="70" width="300" height="8" as="geometry" />
        </mxCell>
        <mxCell id="_pYZsoWhLjhE2k3BnA1Z-89" value="+Â scaleByDoubleFingers(type): ScaleByDoubleFingers&#xa;+ fetch(): Promise&#xa;+ select(): void&#xa;Â + render(): ReactNode" style="text;strokeColor=none;fillColor=none;align=left;verticalAlign=top;spacingLeft=4;spacingRight=4;overflow=hidden;rotatable=0;points=[[0,0.5],[1,0.5]];portConstraint=eastwest;" parent="_pYZsoWhLjhE2k3BnA1Z-86" vertex="1">
          <mxGeometry y="78" width="300" height="72" as="geometry" />
        </mxCell>
        <mxCell id="_pYZsoWhLjhE2k3BnA1Z-94" value="UseOperators" style="swimlane;fontStyle=1;align=center;verticalAlign=top;childLayout=stackLayout;horizontal=1;startSize=26;horizontalStack=0;resizeParent=1;resizeParentMax=0;resizeLast=0;collapsible=1;marginBottom=0;fontColor=#000000;html=0;" parent="1" vertex="1">
          <mxGeometry x="230" y="960" width="240" height="140" as="geometry" />
        </mxCell>
        <mxCell id="_pYZsoWhLjhE2k3BnA1Z-95" value="+ locked: boolean&#xa;+Â MAXOPERATORCOUNT: number&#xa;+ eventHandlers?: function" style="text;strokeColor=none;fillColor=none;align=left;verticalAlign=top;spacingLeft=4;spacingRight=4;overflow=hidden;rotatable=0;points=[[0,0.5],[1,0.5]];portConstraint=eastwest;" parent="_pYZsoWhLjhE2k3BnA1Z-94" vertex="1">
          <mxGeometry y="26" width="240" height="64" as="geometry" />
        </mxCell>
        <mxCell id="_pYZsoWhLjhE2k3BnA1Z-96" value="" style="line;strokeWidth=1;fillColor=none;align=left;verticalAlign=middle;spacingTop=-1;spacingLeft=3;spacingRight=3;rotatable=0;labelPosition=right;points=[];portConstraint=eastwest;" parent="_pYZsoWhLjhE2k3BnA1Z-94" vertex="1">
          <mxGeometry y="90" width="240" height="8" as="geometry" />
        </mxCell>
        <mxCell id="_pYZsoWhLjhE2k3BnA1Z-97" value="+Â multipleOperator(): MultipleOperator&#xa;+ return(): OperatorsDataCollection" style="text;strokeColor=none;fillColor=none;align=left;verticalAlign=top;spacingLeft=4;spacingRight=4;overflow=hidden;rotatable=0;points=[[0,0.5],[1,0.5]];portConstraint=eastwest;" parent="_pYZsoWhLjhE2k3BnA1Z-94" vertex="1">
          <mxGeometry y="98" width="240" height="42" as="geometry" />
        </mxCell>
        <mxCell id="_pYZsoWhLjhE2k3BnA1Z-98" value="1" style="endArrow=open;html=1;endSize=12;startArrow=diamondThin;startSize=14;startFill=0;edgeStyle=orthogonalEdgeStyle;align=left;verticalAlign=bottom;fontColor=#000000;entryX=-0.004;entryY=0.279;entryDx=0;entryDy=0;entryPerimeter=0;exitX=0.601;exitY=-0.008;exitDx=0;exitDy=0;exitPerimeter=0;" parent="1" source="_pYZsoWhLjhE2k3BnA1Z-46" target="_pYZsoWhLjhE2k3BnA1Z-52" edge="1">
          <mxGeometry x="-0.5661" relative="1" as="geometry">
            <mxPoint x="260" y="380" as="sourcePoint" />
            <mxPoint x="660" y="440" as="targetPoint" />
            <Array as="points">
              <mxPoint x="232" y="198" />
            </Array>
            <mxPoint as="offset" />
          </mxGeometry>
        </mxCell>
        <mxCell id="_pYZsoWhLjhE2k3BnA1Z-100" value="2" style="endArrow=open;html=1;endSize=12;startArrow=diamondThin;startSize=14;startFill=0;edgeStyle=orthogonalEdgeStyle;align=left;verticalAlign=bottom;fontColor=#000000;exitX=0.5;exitY=1;exitDx=0;exitDy=0;exitPerimeter=0;" parent="1" source="_pYZsoWhLjhE2k3BnA1Z-49" edge="1">
          <mxGeometry x="0.322" relative="1" as="geometry">
            <mxPoint x="210" y="540" as="sourcePoint" />
            <mxPoint x="210" y="630" as="targetPoint" />
            <Array as="points" />
            <mxPoint as="offset" />
          </mxGeometry>
        </mxCell>
        <mxCell id="_pYZsoWhLjhE2k3BnA1Z-101" value="2" style="endArrow=open;html=1;endSize=12;startArrow=diamondThin;startSize=14;startFill=0;edgeStyle=orthogonalEdgeStyle;align=left;verticalAlign=bottom;fontColor=#000000;exitX=0.5;exitY=1;exitDx=0;exitDy=0;exitPerimeter=0;" parent="1" edge="1">
          <mxGeometry x="0.322" relative="1" as="geometry">
            <mxPoint x="470" y="530" as="sourcePoint" />
            <mxPoint x="469.9999999999998" y="630" as="targetPoint" />
            <Array as="points" />
            <mxPoint as="offset" />
          </mxGeometry>
        </mxCell>
        <mxCell id="_pYZsoWhLjhE2k3BnA1Z-103" value="2" style="endArrow=open;html=1;endSize=12;startArrow=diamondThin;startSize=14;startFill=0;edgeStyle=orthogonalEdgeStyle;align=left;verticalAlign=bottom;fontColor=#000000;exitX=0.5;exitY=1;exitDx=0;exitDy=0;exitPerimeter=0;" parent="1" edge="1">
          <mxGeometry x="0.322" relative="1" as="geometry">
            <mxPoint x="750" y="530" as="sourcePoint" />
            <mxPoint x="749.9999999999998" y="630" as="targetPoint" />
            <Array as="points" />
            <mxPoint as="offset" />
          </mxGeometry>
        </mxCell>
        <mxCell id="_pYZsoWhLjhE2k3BnA1Z-104" value="2" style="endArrow=open;html=1;endSize=12;startArrow=diamondThin;startSize=14;startFill=0;edgeStyle=orthogonalEdgeStyle;align=left;verticalAlign=bottom;fontColor=#000000;exitX=0.5;exitY=1;exitDx=0;exitDy=0;exitPerimeter=0;" parent="1" edge="1">
          <mxGeometry x="0.322" relative="1" as="geometry">
            <mxPoint x="1084.4999999999998" y="530" as="sourcePoint" />
            <mxPoint x="1084.4999999999998" y="630" as="targetPoint" />
            <Array as="points">
              <mxPoint x="1084.84" y="560" />
              <mxPoint x="1084.84" y="560" />
            </Array>
            <mxPoint as="offset" />
          </mxGeometry>
        </mxCell>
        <mxCell id="_pYZsoWhLjhE2k3BnA1Z-105" value="1" style="endArrow=open;html=1;endSize=12;startArrow=diamondThin;startSize=14;startFill=0;edgeStyle=orthogonalEdgeStyle;align=left;verticalAlign=bottom;fontColor=#000000;entryX=-0.011;entryY=1.038;entryDx=0;entryDy=0;entryPerimeter=0;exitX=0.567;exitY=-0.017;exitDx=0;exitDy=0;exitPerimeter=0;" parent="1" source="_pYZsoWhLjhE2k3BnA1Z-56" target="_pYZsoWhLjhE2k3BnA1Z-52" edge="1">
          <mxGeometry x="-0.2373" relative="1" as="geometry">
            <mxPoint x="380" y="310" as="sourcePoint" />
            <mxPoint x="540" y="310" as="targetPoint" />
            <mxPoint as="offset" />
          </mxGeometry>
        </mxCell>
        <mxCell id="_pYZsoWhLjhE2k3BnA1Z-106" value="1" style="endArrow=open;html=1;endSize=12;startArrow=diamondThin;startSize=14;startFill=0;edgeStyle=orthogonalEdgeStyle;align=left;verticalAlign=bottom;fontColor=#000000;entryX=1;entryY=1.038;entryDx=0;entryDy=0;entryPerimeter=0;" parent="1" target="_pYZsoWhLjhE2k3BnA1Z-52" edge="1">
          <mxGeometry x="-0.0391" relative="1" as="geometry">
            <mxPoint x="750" y="388" as="sourcePoint" />
            <mxPoint x="730" y="240" as="targetPoint" />
            <mxPoint as="offset" />
          </mxGeometry>
        </mxCell>
        <mxCell id="_pYZsoWhLjhE2k3BnA1Z-107" value="1" style="endArrow=open;html=1;endSize=12;startArrow=diamondThin;startSize=14;startFill=0;edgeStyle=orthogonalEdgeStyle;align=left;verticalAlign=bottom;fontColor=#000000;exitX=0.388;exitY=-0.003;exitDx=0;exitDy=0;exitPerimeter=0;entryX=1.012;entryY=0.176;entryDx=0;entryDy=0;entryPerimeter=0;" parent="1" source="_pYZsoWhLjhE2k3BnA1Z-66" target="_pYZsoWhLjhE2k3BnA1Z-52" edge="1">
          <mxGeometry x="-0.585" relative="1" as="geometry">
            <mxPoint x="750" y="290" as="sourcePoint" />
            <mxPoint x="910" y="290" as="targetPoint" />
            <mxPoint as="offset" />
          </mxGeometry>
        </mxCell>
        <mxCell id="_pYZsoWhLjhE2k3BnA1Z-108" value="&amp;lt;&amp;lt;create&amp;gt;&amp;gt;" style="html=1;verticalAlign=bottom;endArrow=open;dashed=1;endSize=8;fontColor=#000000;" parent="1" edge="1">
          <mxGeometry relative="1" as="geometry">
            <mxPoint x="470" y="1021.5" as="sourcePoint" />
            <mxPoint x="580" y="1022" as="targetPoint" />
          </mxGeometry>
        </mxCell>
        <mxCell id="_pYZsoWhLjhE2k3BnA1Z-109" value="OperatorsDataCollection" style="swimlane;fontStyle=1;align=center;verticalAlign=top;childLayout=stackLayout;horizontal=1;startSize=26;horizontalStack=0;resizeParent=1;resizeParentMax=0;resizeLast=0;collapsible=1;marginBottom=0;fontColor=#000000;html=0;" parent="1" vertex="1">
          <mxGeometry x="580" y="980" width="190" height="88" as="geometry" />
        </mxCell>
        <mxCell id="_pYZsoWhLjhE2k3BnA1Z-110" value="+ operatorStateList: array&#xa;+ dispatchSetOperators: function&#xa;+ eventCollection: object" style="text;strokeColor=none;fillColor=none;align=left;verticalAlign=top;spacingLeft=4;spacingRight=4;overflow=hidden;rotatable=0;points=[[0,0.5],[1,0.5]];portConstraint=eastwest;" parent="_pYZsoWhLjhE2k3BnA1Z-109" vertex="1">
          <mxGeometry y="26" width="190" height="54" as="geometry" />
        </mxCell>
        <mxCell id="_pYZsoWhLjhE2k3BnA1Z-111" value="" style="line;strokeWidth=1;fillColor=none;align=left;verticalAlign=middle;spacingTop=-1;spacingLeft=3;spacingRight=3;rotatable=0;labelPosition=right;points=[];portConstraint=eastwest;" parent="_pYZsoWhLjhE2k3BnA1Z-109" vertex="1">
          <mxGeometry y="80" width="190" height="8" as="geometry" />
        </mxCell>
        <mxCell id="_pYZsoWhLjhE2k3BnA1Z-113" value="Use" style="endArrow=open;endSize=12;dashed=1;html=1;fontColor=#000000;exitX=0.491;exitY=1.038;exitDx=0;exitDy=0;exitPerimeter=0;entryX=0.333;entryY=0.008;entryDx=0;entryDy=0;entryPerimeter=0;" parent="1" source="_pYZsoWhLjhE2k3BnA1Z-77" target="_pYZsoWhLjhE2k3BnA1Z-94" edge="1">
          <mxGeometry width="160" relative="1" as="geometry">
            <mxPoint x="380" y="870" as="sourcePoint" />
            <mxPoint x="540" y="870" as="targetPoint" />
          </mxGeometry>
        </mxCell>
        <mxCell id="_pYZsoWhLjhE2k3BnA1Z-114" value="Use" style="endArrow=open;endSize=12;dashed=1;html=1;fontColor=#000000;exitX=0.464;exitY=1;exitDx=0;exitDy=0;exitPerimeter=0;entryX=0.671;entryY=-0.008;entryDx=0;entryDy=0;entryPerimeter=0;" parent="1" source="_pYZsoWhLjhE2k3BnA1Z-81" target="_pYZsoWhLjhE2k3BnA1Z-94" edge="1">
          <mxGeometry width="160" relative="1" as="geometry">
            <mxPoint x="380" y="870" as="sourcePoint" />
            <mxPoint x="350" y="960" as="targetPoint" />
          </mxGeometry>
        </mxCell>
        <mxCell id="_pYZsoWhLjhE2k3BnA1Z-115" value="TouchUtils" style="swimlane;fontStyle=1;align=center;verticalAlign=top;childLayout=stackLayout;horizontal=1;startSize=26;horizontalStack=0;resizeParent=1;resizeParentMax=0;resizeLast=0;collapsible=1;marginBottom=0;fontColor=#000000;html=0;" parent="1" vertex="1">
          <mxGeometry x="770" y="850" width="310" height="110" as="geometry" />
        </mxCell>
        <mxCell id="_pYZsoWhLjhE2k3BnA1Z-116" value="- touchState: object" style="text;strokeColor=none;fillColor=none;align=left;verticalAlign=top;spacingLeft=4;spacingRight=4;overflow=hidden;rotatable=0;points=[[0,0.5],[1,0.5]];portConstraint=eastwest;" parent="_pYZsoWhLjhE2k3BnA1Z-115" vertex="1">
          <mxGeometry y="26" width="310" height="26" as="geometry" />
        </mxCell>
        <mxCell id="_pYZsoWhLjhE2k3BnA1Z-117" value="" style="line;strokeWidth=1;fillColor=none;align=left;verticalAlign=middle;spacingTop=-1;spacingLeft=3;spacingRight=3;rotatable=0;labelPosition=right;points=[];portConstraint=eastwest;" parent="_pYZsoWhLjhE2k3BnA1Z-115" vertex="1">
          <mxGeometry y="52" width="310" height="8" as="geometry" />
        </mxCell>
        <mxCell id="_pYZsoWhLjhE2k3BnA1Z-118" value="+Â scaleByDoubleFingers(type): ScaleByDoubleFingers&#xa;+Â multipleOperator(): MultipleOperator" style="text;strokeColor=none;fillColor=none;align=left;verticalAlign=top;spacingLeft=4;spacingRight=4;overflow=hidden;rotatable=0;points=[[0,0.5],[1,0.5]];portConstraint=eastwest;labelBorderColor=none;" parent="_pYZsoWhLjhE2k3BnA1Z-115" vertex="1">
          <mxGeometry y="60" width="310" height="50" as="geometry" />
        </mxCell>
        <mxCell id="_pYZsoWhLjhE2k3BnA1Z-119" value="&amp;lt;&amp;lt;create&amp;gt;&amp;gt;" style="html=1;verticalAlign=bottom;endArrow=open;dashed=1;endSize=8;fontColor=#000000;entryX=0.465;entryY=1.018;entryDx=0;entryDy=0;entryPerimeter=0;" parent="1" target="_pYZsoWhLjhE2k3BnA1Z-134" edge="1">
          <mxGeometry relative="1" as="geometry">
            <mxPoint x="1080" y="870" as="sourcePoint" />
            <mxPoint x="1180" y="870" as="targetPoint" />
            <Array as="points">
              <mxPoint x="1454" y="870" />
            </Array>
            <mxPoint as="offset" />
          </mxGeometry>
        </mxCell>
        <mxCell id="_pYZsoWhLjhE2k3BnA1Z-120" value="&amp;lt;&amp;lt;create&amp;gt;&amp;gt;" style="html=1;verticalAlign=bottom;endArrow=open;dashed=1;endSize=8;fontColor=#000000;entryX=0;entryY=0.155;entryDx=0;entryDy=0;entryPerimeter=0;" parent="1" target="_pYZsoWhLjhE2k3BnA1Z-136" edge="1">
          <mxGeometry relative="1" as="geometry">
            <mxPoint x="1080" y="950" as="sourcePoint" />
            <mxPoint x="1180" y="950" as="targetPoint" />
            <mxPoint as="offset" />
          </mxGeometry>
        </mxCell>
        <mxCell id="_pYZsoWhLjhE2k3BnA1Z-131" value="ScaleByDoubleFingers" style="swimlane;fontStyle=1;align=center;verticalAlign=top;childLayout=stackLayout;horizontal=1;startSize=26;horizontalStack=0;resizeParent=1;resizeParentMax=0;resizeLast=0;collapsible=1;marginBottom=0;fontColor=#000000;html=0;" parent="1" vertex="1">
          <mxGeometry x="1310" y="600" width="310" height="228" as="geometry" />
        </mxCell>
        <mxCell id="_pYZsoWhLjhE2k3BnA1Z-132" value="-Â lastDist: number&#xa;-Â lastPosition: object&#xa;- locked: boolean&#xa;-Â target: KonvaShape" style="text;strokeColor=none;fillColor=none;align=left;verticalAlign=top;spacingLeft=4;spacingRight=4;overflow=hidden;rotatable=0;points=[[0,0.5],[1,0.5]];portConstraint=eastwest;" parent="_pYZsoWhLjhE2k3BnA1Z-131" vertex="1">
          <mxGeometry y="26" width="310" height="84" as="geometry" />
        </mxCell>
        <mxCell id="_pYZsoWhLjhE2k3BnA1Z-133" value="" style="line;strokeWidth=1;fillColor=none;align=left;verticalAlign=middle;spacingTop=-1;spacingLeft=3;spacingRight=3;rotatable=0;labelPosition=right;points=[];portConstraint=eastwest;" parent="_pYZsoWhLjhE2k3BnA1Z-131" vertex="1">
          <mxGeometry y="110" width="310" height="8" as="geometry" />
        </mxCell>
        <mxCell id="_pYZsoWhLjhE2k3BnA1Z-134" value="+Â initInstart(event: event): void&#xa;+Â scaleByDoubleFingers(event: event): void&#xa;+Â fingerUpAfterScaleByDoubleFingers(): void&#xa;+Â fingerUpAfterMoveBySingleFinger(event: event): void&#xa;+Â changeLocked(value: boolean): void&#xa;+ scopeGetters(): void&#xa;+ scopeSetters(): void" style="text;strokeColor=none;fillColor=none;align=left;verticalAlign=top;spacingLeft=4;spacingRight=4;overflow=hidden;rotatable=0;points=[[0,0.5],[1,0.5]];portConstraint=eastwest;" parent="_pYZsoWhLjhE2k3BnA1Z-131" vertex="1">
          <mxGeometry y="118" width="310" height="110" as="geometry" />
        </mxCell>
        <mxCell id="_pYZsoWhLjhE2k3BnA1Z-135" value="MultipleOperator" style="swimlane;fontStyle=1;align=center;verticalAlign=top;childLayout=stackLayout;horizontal=1;startSize=26;horizontalStack=0;resizeParent=1;resizeParentMax=0;resizeLast=0;collapsible=1;marginBottom=0;fontColor=#000000;html=0;" parent="1" vertex="1">
          <mxGeometry x="1190" y="910" width="450" height="228" as="geometry" />
        </mxCell>
        <mxCell id="_pYZsoWhLjhE2k3BnA1Z-136" value="- baseX: number&#xa;- baseY: number&#xa;-Â previousPoint: object&#xa;-Â previousHalfDiagonalDistance: number&#xa;- locked: boolean" style="text;strokeColor=none;fillColor=none;align=left;verticalAlign=top;spacingLeft=4;spacingRight=4;overflow=hidden;rotatable=0;points=[[0,0.5],[1,0.5]];portConstraint=eastwest;" parent="_pYZsoWhLjhE2k3BnA1Z-135" vertex="1">
          <mxGeometry y="26" width="450" height="84" as="geometry" />
        </mxCell>
        <mxCell id="_pYZsoWhLjhE2k3BnA1Z-137" value="" style="line;strokeWidth=1;fillColor=none;align=left;verticalAlign=middle;spacingTop=-1;spacingLeft=3;spacingRight=3;rotatable=0;labelPosition=right;points=[];portConstraint=eastwest;" parent="_pYZsoWhLjhE2k3BnA1Z-135" vertex="1">
          <mxGeometry y="110" width="450" height="8" as="geometry" />
        </mxCell>
        <mxCell id="_pYZsoWhLjhE2k3BnA1Z-138" value="+Â moveBySingleFinger(event: event, state: OperatorState): void&#xa;+Â singleFingerUpAfterMove(): void&#xa;+Â scaleAndRotateBySingleFinger(event: event, state: OperatorState): void&#xa;+Â singleFingerUpAfterScaleAndRotate(): void&#xa;+Â changeLocked(value: boolean): void&#xa;+ scopeGetters(): void&#xa;+ scopeSetters(): void&#xa;" style="text;strokeColor=none;fillColor=none;align=left;verticalAlign=top;spacingLeft=4;spacingRight=4;overflow=hidden;rotatable=0;points=[[0,0.5],[1,0.5]];portConstraint=eastwest;" parent="_pYZsoWhLjhE2k3BnA1Z-135" vertex="1">
          <mxGeometry y="118" width="450" height="110" as="geometry" />
        </mxCell>
        <mxCell id="_pYZsoWhLjhE2k3BnA1Z-139" value="Use" style="endArrow=open;endSize=12;dashed=1;html=1;fontColor=#000000;exitX=0.996;exitY=0.172;exitDx=0;exitDy=0;exitPerimeter=0;entryX=0;entryY=0.5;entryDx=0;entryDy=0;" parent="1" source="_pYZsoWhLjhE2k3BnA1Z-95" target="_pYZsoWhLjhE2k3BnA1Z-116" edge="1">
          <mxGeometry width="160" relative="1" as="geometry">
            <mxPoint x="530" y="820" as="sourcePoint" />
            <mxPoint x="690" y="820" as="targetPoint" />
          </mxGeometry>
        </mxCell>
        <mxCell id="_pYZsoWhLjhE2k3BnA1Z-140" value="Use" style="endArrow=open;endSize=12;dashed=1;html=1;fontColor=#000000;entryX=0.323;entryY=-0.009;entryDx=0;entryDy=0;entryPerimeter=0;exitX=0.409;exitY=1.038;exitDx=0;exitDy=0;exitPerimeter=0;" parent="1" source="_pYZsoWhLjhE2k3BnA1Z-85" target="_pYZsoWhLjhE2k3BnA1Z-115" edge="1">
          <mxGeometry width="160" relative="1" as="geometry">
            <mxPoint x="630" y="790" as="sourcePoint" />
            <mxPoint x="790" y="790" as="targetPoint" />
          </mxGeometry>
        </mxCell>
        <mxCell id="_pYZsoWhLjhE2k3BnA1Z-141" value="Use" style="endArrow=open;endSize=12;dashed=1;html=1;fontColor=#000000;entryX=0.626;entryY=-0.018;entryDx=0;entryDy=0;entryPerimeter=0;exitX=0.509;exitY=1.019;exitDx=0;exitDy=0;exitPerimeter=0;" parent="1" source="_pYZsoWhLjhE2k3BnA1Z-89" target="_pYZsoWhLjhE2k3BnA1Z-115" edge="1">
          <mxGeometry width="160" relative="1" as="geometry">
            <mxPoint x="630" y="790" as="sourcePoint" />
            <mxPoint x="790" y="790" as="targetPoint" />
          </mxGeometry>
        </mxCell>
        <mxCell id="_pYZsoWhLjhE2k3BnA1Z-142" value="History" style="swimlane;fontStyle=1;align=center;verticalAlign=top;childLayout=stackLayout;horizontal=1;startSize=26;horizontalStack=0;resizeParent=1;resizeParentMax=0;resizeLast=0;collapsible=1;marginBottom=0;fontColor=#000000;html=0;" parent="1" vertex="1">
          <mxGeometry x="1350" y="30" width="300" height="170" as="geometry" />
        </mxCell>
        <mxCell id="_pYZsoWhLjhE2k3BnA1Z-143" value="+ historyStack: array&#xa;+ isLastest: boolean&#xa;+ isOldest: boolean&#xa;- cuurentStep: number" style="text;strokeColor=none;fillColor=none;align=left;verticalAlign=top;spacingLeft=4;spacingRight=4;overflow=hidden;rotatable=0;points=[[0,0.5],[1,0.5]];portConstraint=eastwest;" parent="_pYZsoWhLjhE2k3BnA1Z-142" vertex="1">
          <mxGeometry y="26" width="300" height="64" as="geometry" />
        </mxCell>
        <mxCell id="_pYZsoWhLjhE2k3BnA1Z-144" value="" style="line;strokeWidth=1;fillColor=none;align=left;verticalAlign=middle;spacingTop=-1;spacingLeft=3;spacingRight=3;rotatable=0;labelPosition=right;points=[];portConstraint=eastwest;" parent="_pYZsoWhLjhE2k3BnA1Z-142" vertex="1">
          <mxGeometry y="90" width="300" height="8" as="geometry" />
        </mxCell>
        <mxCell id="_pYZsoWhLjhE2k3BnA1Z-145" value="+ go(targetStep?: number): void&#xa;+ back(): void&#xa;+ historyRegister(dispatchers: ReduxDispatch[]): void&#xa;+Â saveInHistory(action: ReduxAction): void" style="text;strokeColor=none;fillColor=none;align=left;verticalAlign=top;spacingLeft=4;spacingRight=4;overflow=hidden;rotatable=0;points=[[0,0.5],[1,0.5]];portConstraint=eastwest;" parent="_pYZsoWhLjhE2k3BnA1Z-142" vertex="1">
          <mxGeometry y="98" width="300" height="72" as="geometry" />
        </mxCell>
        <mxCell id="_pYZsoWhLjhE2k3BnA1Z-146" value="Use" style="endArrow=open;endSize=12;dashed=1;html=1;fontColor=#000000;exitX=0.994;exitY=0.808;exitDx=0;exitDy=0;exitPerimeter=0;" parent="1" source="_pYZsoWhLjhE2k3BnA1Z-42" edge="1">
          <mxGeometry width="160" relative="1" as="geometry">
            <mxPoint x="960" y="220" as="sourcePoint" />
            <mxPoint x="1349" y="57" as="targetPoint" />
            <Array as="points" />
          </mxGeometry>
        </mxCell>
        <mxCell id="_pYZsoWhLjhE2k3BnA1Z-147" value="Cut" style="swimlane;fontStyle=1;align=center;verticalAlign=top;childLayout=stackLayout;horizontal=1;startSize=26;horizontalStack=0;resizeParent=1;resizeParentMax=0;resizeLast=0;collapsible=1;marginBottom=0;fontColor=#000000;html=0;" parent="1" vertex="1">
          <mxGeometry x="1270" y="390" width="170" height="110" as="geometry" />
        </mxCell>
        <mxCell id="_pYZsoWhLjhE2k3BnA1Z-148" value="+ cutStateList: array" style="text;strokeColor=none;fillColor=none;align=left;verticalAlign=top;spacingLeft=4;spacingRight=4;overflow=hidden;rotatable=0;points=[[0,0.5],[1,0.5]];portConstraint=eastwest;" parent="_pYZsoWhLjhE2k3BnA1Z-147" vertex="1">
          <mxGeometry y="26" width="170" height="26" as="geometry" />
        </mxCell>
        <mxCell id="_pYZsoWhLjhE2k3BnA1Z-149" value="" style="line;strokeWidth=1;fillColor=none;align=left;verticalAlign=middle;spacingTop=-1;spacingLeft=3;spacingRight=3;rotatable=0;labelPosition=right;points=[];portConstraint=eastwest;" parent="_pYZsoWhLjhE2k3BnA1Z-147" vertex="1">
          <mxGeometry y="52" width="170" height="8" as="geometry" />
        </mxCell>
        <mxCell id="_pYZsoWhLjhE2k3BnA1Z-150" value="+ cut(): void&#xa;+ fetch(): Promise&#xa;+ select(cutState: object): void" style="text;strokeColor=none;fillColor=none;align=left;verticalAlign=top;spacingLeft=4;spacingRight=4;overflow=hidden;rotatable=0;points=[[0,0.5],[1,0.5]];portConstraint=eastwest;" parent="_pYZsoWhLjhE2k3BnA1Z-147" vertex="1">
          <mxGeometry y="60" width="170" height="50" as="geometry" />
        </mxCell>
        <mxCell id="_pYZsoWhLjhE2k3BnA1Z-151" value="Use" style="endArrow=open;endSize=12;dashed=1;html=1;fontColor=#000000;exitX=1.004;exitY=0;exitDx=0;exitDy=0;exitPerimeter=0;entryX=0.369;entryY=0.012;entryDx=0;entryDy=0;entryPerimeter=0;" parent="1" source="_pYZsoWhLjhE2k3BnA1Z-44" target="_pYZsoWhLjhE2k3BnA1Z-147" edge="1">
          <mxGeometry width="160" relative="1" as="geometry">
            <mxPoint x="840" y="170" as="sourcePoint" />
            <mxPoint x="1000" y="170" as="targetPoint" />
            <Array as="points">
              <mxPoint x="1329" y="70" />
            </Array>
          </mxGeometry>
        </mxCell>
        <mxCell id="_pYZsoWhLjhE2k3BnA1Z-152" value="Active" style="swimlane;fontStyle=1;align=center;verticalAlign=top;childLayout=stackLayout;horizontal=1;startSize=26;horizontalStack=0;resizeParent=1;resizeParentMax=0;resizeLast=0;collapsible=1;marginBottom=0;fontColor=#000000;html=0;" parent="1" vertex="1">
          <mxGeometry x="1350" y="250" width="290" height="100" as="geometry" />
        </mxCell>
        <mxCell id="_pYZsoWhLjhE2k3BnA1Z-153" value="+ cancelActiveDispatchers: ReduxDispatch[]" style="text;strokeColor=none;fillColor=none;align=left;verticalAlign=top;spacingLeft=4;spacingRight=4;overflow=hidden;rotatable=0;points=[[0,0.5],[1,0.5]];portConstraint=eastwest;" parent="_pYZsoWhLjhE2k3BnA1Z-152" vertex="1">
          <mxGeometry y="26" width="290" height="26" as="geometry" />
        </mxCell>
        <mxCell id="_pYZsoWhLjhE2k3BnA1Z-154" value="" style="line;strokeWidth=1;fillColor=none;align=left;verticalAlign=middle;spacingTop=-1;spacingLeft=3;spacingRight=3;rotatable=0;labelPosition=right;points=[];portConstraint=eastwest;" parent="_pYZsoWhLjhE2k3BnA1Z-152" vertex="1">
          <mxGeometry y="52" width="290" height="8" as="geometry" />
        </mxCell>
        <mxCell id="_pYZsoWhLjhE2k3BnA1Z-155" value="+ activeRegister(dispatchers: ReduxDispatch[]): void&#xa;+ cancelAllActive(): void" style="text;strokeColor=none;fillColor=none;align=left;verticalAlign=top;spacingLeft=4;spacingRight=4;overflow=hidden;rotatable=0;points=[[0,0.5],[1,0.5]];portConstraint=eastwest;" parent="_pYZsoWhLjhE2k3BnA1Z-152" vertex="1">
          <mxGeometry y="60" width="290" height="40" as="geometry" />
        </mxCell>
        <mxCell id="_pYZsoWhLjhE2k3BnA1Z-156" value="Use" style="endArrow=open;endSize=12;dashed=1;html=1;fontColor=#000000;exitX=1;exitY=0.5;exitDx=0;exitDy=0;entryX=-0.007;entryY=0.16;entryDx=0;entryDy=0;entryPerimeter=0;" parent="1" source="_pYZsoWhLjhE2k3BnA1Z-44" target="_pYZsoWhLjhE2k3BnA1Z-152" edge="1">
          <mxGeometry width="160" relative="1" as="geometry">
            <mxPoint x="970" y="280" as="sourcePoint" />
            <mxPoint x="1130" y="280" as="targetPoint" />
          </mxGeometry>
        </mxCell>
        <mxCell id="nBBYGZliYF7QlxYGMe0U-1" value="FontDownloadSaveService" style="swimlane;fontStyle=1;align=center;verticalAlign=top;childLayout=stackLayout;horizontal=1;startSize=26;horizontalStack=0;resizeParent=1;resizeParentMax=0;resizeLast=0;collapsible=1;marginBottom=0;" vertex="1" parent="1">
          <mxGeometry x="830" y="1110" width="160" height="148" as="geometry" />
        </mxCell>
        <mxCell id="nBBYGZliYF7QlxYGMe0U-2" value="+ url: string&#xa;- indexedDb: IndexedDb" style="text;strokeColor=none;fillColor=none;align=left;verticalAlign=top;spacingLeft=4;spacingRight=4;overflow=hidden;rotatable=0;points=[[0,0.5],[1,0.5]];portConstraint=eastwest;" vertex="1" parent="nBBYGZliYF7QlxYGMe0U-1">
          <mxGeometry y="26" width="160" height="44" as="geometry" />
        </mxCell>
        <mxCell id="nBBYGZliYF7QlxYGMe0U-3" value="" style="line;strokeWidth=1;fillColor=none;align=left;verticalAlign=middle;spacingTop=-1;spacingLeft=3;spacingRight=3;rotatable=0;labelPosition=right;points=[];portConstraint=eastwest;" vertex="1" parent="nBBYGZliYF7QlxYGMe0U-1">
          <mxGeometry y="70" width="160" height="8" as="geometry" />
        </mxCell>
        <mxCell id="nBBYGZliYF7QlxYGMe0U-4" value="+Â getFont(type): void&#xa;+Â useFontService(): void&#xa;+Â hasDownload(): void&#xa;+Â fetchFont(): void" style="text;strokeColor=none;fillColor=none;align=left;verticalAlign=top;spacingLeft=4;spacingRight=4;overflow=hidden;rotatable=0;points=[[0,0.5],[1,0.5]];portConstraint=eastwest;" vertex="1" parent="nBBYGZliYF7QlxYGMe0U-1">
          <mxGeometry y="78" width="160" height="70" as="geometry" />
        </mxCell>
        <mxCell id="nBBYGZliYF7QlxYGMe0U-5" value="Use" style="endArrow=open;endSize=12;dashed=1;html=1;exitX=0.666;exitY=1.021;exitDx=0;exitDy=0;exitPerimeter=0;" edge="1" parent="1" source="_pYZsoWhLjhE2k3BnA1Z-81">
          <mxGeometry width="160" relative="1" as="geometry">
            <mxPoint x="830" y="990" as="sourcePoint" />
            <mxPoint x="910" y="1110" as="targetPoint" />
            <Array as="points">
              <mxPoint x="730" y="940" />
            </Array>
          </mxGeometry>
        </mxCell>
      </root>
    </mxGraphModel>
  </diagram>
</mxfile>
